<svg width="128" height="128" viewBox="0 0 128 128" fill="none" xmlns="http://www.w3.org/2000/svg">
<mask id="mask0_214_1398" style="mask-type:alpha" maskUnits="userSpaceOnUse" x="14" y="12" width="84" height="104">
<path d="M14.08 12.8H97.28V115.2H14.08V12.8Z" fill="url(#paint0_linear_214_1398)"/>
</mask>
<g mask="url(#mask0_214_1398)">
<path d="M14.0798 13.3746H74.1811L85.2826 24.8588L96.7669 34.8117V115.201H14.0798V13.3746Z" fill="#151B1E"/>
<path d="M74.1836 34.811L74.1819 13.3739L96.7661 34.811L74.1836 34.811Z" fill="#354046"/>
</g>
<mask id="mask1_214_1398" style="mask-type:alpha" maskUnits="userSpaceOnUse" x="19" y="44" width="72" height="38">
<rect x="19.1998" y="44.8008" width="71.68" height="37.12" fill="url(#paint1_linear_214_1398)"/>
</mask>
<g mask="url(#mask1_214_1398)">
<rect opacity="0.5" x="20.9698" y="46.2957" width="68.9059" height="6.89051" rx="1.91404" fill="#75838A"/>
<rect opacity="0.3" x="20.9698" y="60.0771" width="68.9059" height="6.89051" rx="1.91404" fill="#75838A"/>
<rect opacity="0.2" x="20.9698" y="73.8584" width="68.9059" height="6.89051" rx="1.91404" fill="#75838A"/>
</g>
<path d="M92.2039 49.7948C102.681 48.6011 112.143 56.1273 113.336 66.6044C114.53 77.0814 107.004 86.5421 96.5268 87.7359C86.0496 88.9295 76.5882 81.4042 75.3944 70.9273C74.2007 60.4502 81.7267 50.9886 92.2039 49.7948Z" stroke="#75838A" stroke-width="5.12"/>
<path d="M118.338 95.4724C119.38 96.4286 120.999 96.3594 121.955 95.3179C122.912 94.2765 122.842 92.6571 121.801 91.7009L120.07 93.5866L118.338 95.4724ZM108.79 83.231L107.059 85.1168L118.338 95.4724L120.07 93.5866L121.801 91.7009L110.521 81.3453L108.79 83.231Z" fill="#75838A"/>
<defs>
<linearGradient id="paint0_linear_214_1398" x1="58.88" y1="39.04" x2="58.88" y2="115.2" gradientUnits="userSpaceOnUse">
<stop stop-color="white"/>
<stop offset="1" stop-color="white" stop-opacity="0"/>
</linearGradient>
<linearGradient id="paint1_linear_214_1398" x1="90.8798" y1="64.0008" x2="19.8398" y2="64.0008" gradientUnits="userSpaceOnUse">
<stop stop-color="white"/>
<stop offset="1" stop-color="white" stop-opacity="0.05"/>
</linearGradient>
</defs>
</svg>
