<svg width="24" height="24" viewBox="0 0 24 24" fill="none" xmlns="http://www.w3.org/2000/svg">
<path d="M24 16.248C24 16.648 23.932 17.024 23.796 17.376C23.66 17.728 23.468 18.044 23.22 18.324C22.972 18.604 22.684 18.84 22.356 19.032C22.028 19.224 21.672 19.352 21.288 19.416L21.312 19.44H20.904H20.808H20.712H4.872C4.792 19.456 4.664 19.464 4.488 19.464C3.864 19.464 3.28 19.344 2.736 19.104C2.192 18.864 1.716 18.54 1.308 18.132C0.9 17.724 0.58 17.248 0.348 16.704C0.116 16.16 0 15.576 0 14.952C0 14.328 0.116 13.744 0.348 13.2C0.58 12.656 0.9 12.18 1.308 11.772C1.716 11.364 2.192 11.04 2.736 10.8C3.28 10.56 3.864 10.44 4.488 10.44H4.512C4.496 10.312 4.488 10.192 4.488 10.08V9.696C4.488 8.56 4.704 7.488 5.136 6.48C5.568 5.472 6.16 4.596 6.912 3.852C7.664 3.108 8.54 2.52 9.54 2.088C10.54 1.656 11.608 1.44 12.744 1.44C13.88 1.44 14.952 1.656 15.96 2.088C16.968 2.52 17.848 3.108 18.6 3.852C19.352 4.596 19.944 5.472 20.376 6.48C20.808 7.488 21.024 8.56 21.024 9.696C21.024 10.288 20.96 10.868 20.832 11.436C20.704 12.004 20.528 12.544 20.304 13.056C20.384 13.04 20.468 13.028 20.556 13.02C20.644 13.012 20.728 13.008 20.808 13.008C21.24 13.008 21.652 13.092 22.044 13.26C22.436 13.428 22.776 13.66 23.064 13.956C23.352 14.252 23.58 14.596 23.748 14.988C23.916 15.38 24 15.8 24 16.248ZM15.6 13.392C15.92 13.392 16.128 13.356 16.224 13.284C16.32 13.212 16.256 13.04 16.032 12.768C15.808 12.48 15.56 12.104 15.288 11.64C15.016 11.176 14.732 10.704 14.436 10.224C14.14 9.744 13.84 9.296 13.536 8.88C13.232 8.464 12.936 8.16 12.648 7.968C12.36 7.76 12.148 7.648 12.012 7.632C11.876 7.616 11.68 7.712 11.424 7.92C11.136 8.16 10.856 8.464 10.584 8.832C10.312 9.2 10.036 9.592 9.756 10.008C9.476 10.424 9.196 10.832 8.916 11.232C8.636 11.632 8.352 11.984 8.064 12.288C7.776 12.576 7.672 12.832 7.752 13.056C7.832 13.28 8.032 13.392 8.352 13.392H8.736C8.88 13.392 9.036 13.396 9.204 13.404C9.372 13.412 9.536 13.416 9.696 13.416H10.104C10.328 13.432 10.472 13.508 10.536 13.644C10.6 13.78 10.632 13.968 10.632 14.208C10.632 14.48 10.628 14.72 10.62 14.928C10.612 15.136 10.608 15.336 10.608 15.528C10.608 15.72 10.604 15.92 10.596 16.128C10.588 16.336 10.584 16.576 10.584 16.848C10.584 16.96 10.596 17.08 10.62 17.208C10.644 17.336 10.688 17.456 10.752 17.568C10.816 17.68 10.912 17.772 11.04 17.844C11.168 17.916 11.336 17.952 11.544 17.952H12.096C12.24 17.952 12.456 17.96 12.744 17.976C13.128 17.976 13.348 17.88 13.404 17.688C13.46 17.496 13.488 17.192 13.488 16.776C13.488 16.408 13.492 16.076 13.5 15.78C13.508 15.484 13.512 15.08 13.512 14.568C13.512 14.2 13.548 13.916 13.62 13.716C13.692 13.516 13.848 13.416 14.088 13.416C14.264 13.416 14.516 13.412 14.844 13.404C15.172 13.396 15.424 13.392 15.6 13.392Z" fill="#EBEEF0"/>
</svg>
