<svg width="24" height="24" viewBox="0 0 24 24" fill="none" xmlns="http://www.w3.org/2000/svg">
<path d="M12.0274 0H11.9728C5.3604 0 0 5.36035 0 11.9727V12.0273C0 18.6397 5.3604 24 11.9728 24H12.0274C18.6398 24 24.0003 18.6397 24.0003 12.0273V11.9727C24.0003 5.36035 18.6398 0 12.0274 0Z" fill="#354046"/>
<path d="M18.0058 6.49038C16.9009 5.98335 15.717 5.61002 14.4785 5.39645C14.4558 5.39224 14.4331 5.40233 14.4221 5.42335C14.2699 5.6941 14.1009 6.04809 13.9832 6.32557C12.6513 6.12629 11.3261 6.12629 10.0211 6.32557C9.90259 6.04137 9.72769 5.6941 9.57465 5.42335C9.56288 5.40317 9.54018 5.39308 9.51832 5.39645C8.2806 5.61002 7.09585 5.98335 5.99098 6.49038C5.98173 6.49458 5.97332 6.50131 5.96743 6.51055C3.72069 9.86717 3.10517 13.1414 3.40704 16.3753C3.40872 16.3912 3.41713 16.4064 3.42974 16.4156C4.91215 17.5045 6.34834 18.1654 7.7576 18.6035C7.7803 18.6102 7.80384 18.6018 7.81813 18.5833C8.15111 18.1284 8.44877 17.6483 8.70355 17.1429C8.71868 17.1135 8.70354 17.0782 8.67327 17.0664C8.20155 16.8873 7.75338 16.6695 7.32118 16.4223C7.28671 16.4022 7.2842 16.3534 7.31531 16.3298C7.40612 16.2617 7.49693 16.1911 7.58353 16.1196C7.59951 16.1062 7.62137 16.1037 7.63986 16.1121C10.476 17.407 13.5468 17.407 16.3494 16.1121C16.3679 16.1028 16.3897 16.1062 16.4057 16.1188C16.4923 16.1903 16.5831 16.2617 16.6748 16.3298C16.7059 16.3534 16.7042 16.4022 16.6697 16.4223C16.2384 16.6746 15.7893 16.8882 15.3168 17.0664C15.2857 17.0782 15.2722 17.1135 15.2874 17.1438C15.548 17.6474 15.8448 18.1276 16.1719 18.5833C16.1854 18.6026 16.2098 18.611 16.2325 18.6043C17.6485 18.1662 19.0846 17.5053 20.567 16.4165C20.5796 16.4072 20.5881 16.3921 20.5897 16.3769C20.9513 12.6386 19.9843 9.39126 18.0277 6.51224C18.0226 6.50299 18.0151 6.49542 18.005 6.49122L18.0058 6.49038ZM9.12563 14.406C8.27133 14.406 7.5684 13.6224 7.5684 12.6596C7.5684 11.6968 8.25872 10.9132 9.12563 10.9132C9.99255 10.9132 10.6972 11.7044 10.6829 12.6596C10.6829 13.6224 9.99255 14.406 9.12563 14.406ZM14.8846 14.406C14.0303 14.406 13.3274 13.6224 13.3274 12.6596C13.3274 11.6968 14.0177 10.9132 14.8846 10.9132C15.7515 10.9132 16.4561 11.7044 16.4418 12.6596C16.4418 13.6224 15.7591 14.406 14.8846 14.406Z" fill="white"/>
</svg>
