<svg width="24" height="24" viewBox="0 0 24 24" fill="none" xmlns="http://www.w3.org/2000/svg">
<circle cx="12" cy="12" r="11" fill="#75838A"/>
<path d="M12 0C5.374 0 0 5.35581 0 11.9616C0 17.2466 3.438 21.7302 8.207 23.3122C8.806 23.4228 9 23.052 9 22.737V20.5102C5.662 21.2338 4.967 19.0987 4.967 19.0987C4.421 17.7161 3.634 17.3483 3.634 17.3483C2.545 16.6057 3.717 16.6216 3.717 16.6216C4.922 16.7054 5.556 17.8547 5.556 17.8547C6.626 19.6828 8.363 19.1545 9.048 18.8485C9.155 18.076 9.466 17.5477 9.81 17.2496C7.145 16.9456 4.343 15.9199 4.343 11.3376C4.343 10.0308 4.812 8.96423 5.579 8.12691C5.455 7.82488 5.044 6.60779 5.696 4.96108C5.696 4.96108 6.704 4.64011 8.997 6.18714C9.954 5.92199 10.98 5.78942 12 5.78443C13.02 5.78942 14.047 5.92199 15.006 6.18714C17.297 4.64011 18.303 4.96108 18.303 4.96108C18.956 6.60879 18.545 7.82588 18.421 8.12691C19.191 8.96423 19.656 10.0318 19.656 11.3376C19.656 15.9319 16.849 16.9436 14.177 17.2397C14.607 17.6105 15 18.3381 15 19.4546V22.737C15 23.055 15.192 23.4288 15.801 23.3112C20.566 21.7273 24 17.2446 24 11.9616C24 5.35581 18.627 0 12 0Z" fill="#1F292E"/>
</svg>
