<svg width="24" height="24" viewBox="0 0 24 24" fill="none" xmlns="http://www.w3.org/2000/svg">
<path d="M12.0273 0H11.9726C5.36033 0 0 5.36035 0 11.9727V12.0273C0 18.6397 5.36033 24 11.9726 24H12.0273C18.6396 24 24 18.6397 24 12.0273V11.9727C24 5.36035 18.6396 0 12.0273 0Z" fill="#354046"/>
<path d="M4.54566 11.5913C4.5793 11.5745 4.61294 11.5585 4.64574 11.5434C5.21582 11.2794 5.79348 11.0322 6.37029 10.785C6.4014 10.785 6.45352 10.7488 6.48295 10.737C6.52751 10.7177 6.57209 10.6992 6.61665 10.6799C6.70242 10.6429 6.78818 10.6067 6.87311 10.5697C7.04464 10.4966 7.21532 10.4234 7.38685 10.3503L8.4135 9.91049C9.09794 9.61788 9.78324 9.32443 10.4677 9.03182C11.1521 8.73921 11.8374 8.44576 12.5218 8.15314C13.2063 7.86053 13.8916 7.56709 14.576 7.27447C15.2604 6.98186 15.9457 6.68841 16.6302 6.3958C16.7824 6.33021 16.9472 6.23267 17.1103 6.20409C17.2473 6.1797 17.381 6.13262 17.5189 6.10655C17.7804 6.05694 18.0688 6.03676 18.3194 6.14523C18.406 6.18307 18.4859 6.23604 18.5523 6.30247C18.8701 6.61694 18.8256 7.13321 18.7583 7.57549C18.29 10.658 17.8216 13.7413 17.3524 16.8239C17.2885 17.2468 17.2011 17.7109 16.8673 17.9783C16.5847 18.2045 16.1828 18.2297 15.8339 18.1339C15.4849 18.0372 15.1772 17.8345 14.8753 17.6353C13.6233 16.8062 12.3705 15.9771 11.1185 15.1481C10.8208 14.9513 10.4895 14.694 10.4929 14.3367C10.4946 14.1214 10.6232 13.9297 10.7544 13.759C11.8424 12.3397 13.4123 11.3643 14.5802 10.0106C14.745 9.81968 14.8745 9.47494 14.6483 9.36479C14.5138 9.29921 14.3591 9.38833 14.2363 9.47326C12.6925 10.5453 11.1496 11.6182 9.60582 12.6903C9.10216 13.0401 8.57412 13.4 7.96704 13.4857C7.42386 13.5631 6.87732 13.4117 6.35179 13.257C5.9112 13.1275 5.47143 12.9947 5.03335 12.8576C4.80044 12.7853 4.55996 12.7071 4.38002 12.5432C4.20008 12.3792 4.09667 12.1034 4.20514 11.8848C4.27325 11.7477 4.40526 11.6611 4.544 11.5905L4.54566 11.5913Z" fill="white"/>
</svg>
