<svg width="24" height="24" viewBox="0 0 24 24" fill="none" xmlns="http://www.w3.org/2000/svg">
<path d="M23.9979 12.0004C23.9979 18.0612 19.5055 23.0717 13.6696 23.8848C13.1239 23.9605 12.5656 24 11.9989 24C11.3448 24 10.7024 23.9479 10.0769 23.847C4.36371 22.9271 0 17.9729 0 12.0004C0 5.37294 5.37266 0 11.9998 0C18.6269 0 23.9996 5.37294 23.9996 12.0004H23.9979Z" fill="#1F292E"/>
<path d="M4.86651 5.29297L10.4006 12.6923L4.83203 18.7085H6.08566L10.9614 13.4415L14.9005 18.7085H19.1659L13.3207 10.8929L18.5042 5.29297H17.2505L12.7607 10.1438L9.13269 5.29297H4.86734H4.86651ZM6.70952 6.21621H8.66857L17.3212 17.7853H15.3621L6.70952 6.21621Z" fill="#75838A"/>
</svg>
