<svg width="20" height="20" viewBox="0 0 20 20" fill="none" xmlns="http://www.w3.org/2000/svg">
<path d="M10 2.5C5.175 2.5 1.25 6.425 1.25 11.25C1.25 13.2137 1.88563 15.0687 3.0875 16.615C3.13781 16.6798 3.2004 16.7341 3.27168 16.7747C3.34296 16.8153 3.42154 16.8415 3.50293 16.8517C3.58433 16.8619 3.66695 16.8561 3.74607 16.8344C3.82519 16.8127 3.89926 16.7756 3.96406 16.7253C4.02886 16.675 4.08312 16.6124 4.12373 16.5411C4.16434 16.4699 4.19052 16.3913 4.20076 16.3099C4.211 16.2285 4.20512 16.1459 4.18343 16.0667C4.16174 15.9876 4.12469 15.9135 4.07438 15.8488C3.04878 14.5357 2.49429 12.9161 2.5 11.25C2.5 7.11438 5.86438 3.75 10 3.75C14.1356 3.75 17.5 7.11438 17.5 11.25C17.5 12.9325 16.9556 14.5231 15.925 15.8488C15.8745 15.9134 15.8373 15.9875 15.8155 16.0666C15.7937 16.1457 15.7877 16.2283 15.798 16.3097C15.8082 16.3911 15.8344 16.4697 15.8751 16.541C15.9157 16.6123 15.9701 16.6748 16.035 16.725C16.0996 16.7756 16.1736 16.813 16.2528 16.8349C16.3319 16.8568 16.4146 16.8628 16.496 16.8525C16.5775 16.8423 16.6561 16.8161 16.7274 16.7753C16.7987 16.7345 16.8611 16.68 16.9113 16.615C18.1091 15.0838 18.7568 13.1941 18.75 11.25C18.75 6.425 14.825 2.5 10 2.5Z" fill="#EBEEF0"/>
<path d="M9.99997 6.875C10.1657 6.875 10.3247 6.80915 10.4419 6.69194C10.5591 6.57473 10.625 6.41576 10.625 6.25V5C10.625 4.83424 10.5591 4.67527 10.4419 4.55806C10.3247 4.44085 10.1657 4.375 9.99997 4.375C9.83421 4.375 9.67524 4.44085 9.55803 4.55806C9.44082 4.67527 9.37497 4.83424 9.37497 5V6.25C9.37497 6.41576 9.44082 6.57473 9.55803 6.69194C9.67524 6.80915 9.83421 6.875 9.99997 6.875ZM4.72435 8.23187C4.65635 8.18436 4.57958 8.15085 4.4985 8.13331C4.41743 8.11577 4.33367 8.11454 4.25211 8.1297C4.17055 8.14486 4.09283 8.1761 4.02348 8.22161C3.95412 8.26712 3.89451 8.32597 3.84814 8.39475C3.80176 8.46353 3.76954 8.54085 3.75335 8.62221C3.73716 8.70357 3.73733 8.78733 3.75385 8.86863C3.77037 8.94992 3.8029 9.02711 3.84956 9.0957C3.89621 9.16429 3.95606 9.2229 4.0256 9.26813L5.06185 9.96687C5.12984 10.0129 5.20625 10.0451 5.2867 10.0615C5.36714 10.0779 5.45004 10.0783 5.53064 10.0626C5.61124 10.047 5.68795 10.0155 5.75637 9.97013C5.82479 9.92474 5.88357 9.86629 5.92935 9.79813C6.02199 9.6607 6.05625 9.49211 6.0246 9.32943C5.99296 9.16675 5.89799 9.0233 5.7606 8.93062L4.72435 8.23187ZM15.8368 8.28C15.783 8.21802 15.7175 8.16725 15.644 8.1306C15.5706 8.09394 15.4906 8.07212 15.4087 8.06637C15.3268 8.06063 15.2446 8.07107 15.1668 8.09711C15.0889 8.12315 15.0169 8.16427 14.955 8.21813L14.0112 9.03813C13.8861 9.14686 13.8092 9.30086 13.7976 9.46625C13.786 9.63163 13.8406 9.79485 13.9493 9.92C14.0581 10.0451 14.2121 10.122 14.3775 10.1336C14.5429 10.1452 14.7061 10.0906 14.8312 9.98187L15.775 9.16188C15.837 9.10804 15.8877 9.04252 15.9244 8.96907C15.961 8.89561 15.9829 8.81565 15.9886 8.73376C15.9943 8.65186 15.9839 8.56964 15.9579 8.49178C15.9318 8.41392 15.8907 8.34196 15.8368 8.28ZM11.8631 14.375C11.8631 14.3244 11.8687 14.275 11.8562 14.2237L10.6062 9.22375C10.5993 9.19563 10.5812 9.175 10.5706 9.14875C10.5537 9.10687 10.5387 9.06562 10.5131 9.02812C10.4912 8.99563 10.4637 8.97062 10.4368 8.94312C10.4075 8.91313 10.38 8.88438 10.345 8.86063C10.3106 8.8375 10.2725 8.82375 10.2343 8.80813C10.2062 8.79625 10.1831 8.77688 10.1518 8.76937C10.1418 8.76688 10.1325 8.77 10.1225 8.76813C10.0825 8.76 10.0418 8.7625 9.99997 8.7625C9.95872 8.7625 9.9181 8.76 9.8781 8.76813C9.8681 8.77 9.8581 8.76688 9.8481 8.76937C9.81622 8.7775 9.79247 8.7975 9.7631 8.81C9.72622 8.82562 9.68997 8.83875 9.65622 8.86063C9.61935 8.885 9.5906 8.91563 9.55997 8.94625C9.53372 8.9725 9.5081 8.99687 9.48685 9.02812C9.46122 9.06562 9.44622 9.10625 9.42935 9.14813C9.41872 9.17438 9.4006 9.19563 9.3931 9.22375L8.1431 14.2237C8.12997 14.275 8.13622 14.325 8.13622 14.375H8.12497C8.12497 14.4025 8.13185 14.4275 8.1331 14.455L8.1356 14.4806C8.19185 15.4644 9.00247 16.25 9.99997 16.25C10.9975 16.25 11.8081 15.4644 11.8643 14.4806L11.8668 14.455C11.8681 14.4281 11.875 14.4025 11.875 14.375H11.8631ZM9.99997 15C9.84257 14.999 9.6914 14.9384 9.57701 14.8302C9.46262 14.7221 9.39354 14.5746 9.38372 14.4175L9.99997 11.9513L10.6162 14.4169C10.6067 14.5741 10.5377 14.7219 10.4233 14.8302C10.3089 14.9385 10.1575 14.9992 9.99997 15Z" fill="#EBEEF0"/>
</svg>
