<svg width="24" height="24" viewBox="0 0 24 24" fill="none" xmlns="http://www.w3.org/2000/svg">
<circle cx="12" cy="12" r="12" fill="#1F292E"/>
<path d="M13.0176 5.2113V7.31708H11.6465V5.2113H13.0176ZM12.8506 16.868V18.7882H11.4795V16.868H12.8506ZM13.8174 14.5267C13.8174 14.2554 13.7559 14.0246 13.6328 13.8343C13.5156 13.6439 13.3223 13.475 13.0527 13.3275C12.7891 13.1799 12.4316 13.0372 11.9805 12.8992C11.2188 12.6612 10.5479 12.409 9.96777 12.1425C9.39355 11.8713 8.94531 11.5358 8.62305 11.136C8.30078 10.7315 8.13965 10.22 8.13965 9.60131C8.13965 9.01122 8.3125 8.49965 8.6582 8.06659C9.00391 7.63354 9.48145 7.30042 10.0908 7.06724C10.7061 6.8293 11.4209 6.71033 12.2354 6.71033C12.8564 6.71033 13.4189 6.78647 13.9229 6.93875C14.4268 7.08628 14.8604 7.30518 15.2236 7.59547C15.5869 7.881 15.8652 8.23077 16.0586 8.64479C16.252 9.05881 16.3486 9.53231 16.3486 10.0653H13.8262C13.8262 9.77977 13.7881 9.52755 13.7119 9.30864C13.6357 9.08974 13.5244 8.90652 13.3779 8.759C13.2373 8.61148 13.0674 8.50203 12.8682 8.43064C12.6689 8.3545 12.4492 8.31643 12.209 8.31643C11.8516 8.31643 11.5586 8.37354 11.3301 8.48775C11.1016 8.60196 10.9346 8.75662 10.8291 8.95173C10.7295 9.14209 10.6797 9.36099 10.6797 9.60845C10.6797 9.85115 10.7324 10.0629 10.8379 10.2438C10.9492 10.4246 11.1396 10.5911 11.4092 10.7434C11.6787 10.891 12.0479 11.0432 12.5166 11.2003C13.2783 11.4382 13.9463 11.6952 14.5205 11.9712C15.0947 12.2472 15.543 12.5851 15.8652 12.9848C16.1875 13.3846 16.3486 13.8938 16.3486 14.5124C16.3486 15.1263 16.1729 15.6498 15.8213 16.0828C15.4697 16.5111 14.9775 16.8395 14.3447 17.0679C13.7119 17.2916 12.9795 17.4034 12.1475 17.4034C11.6084 17.4034 11.0723 17.3463 10.5391 17.2321C10.0059 17.1131 9.52246 16.9228 9.08887 16.661C8.65527 16.3993 8.30957 16.0519 8.05176 15.6188C7.79395 15.181 7.66504 14.6433 7.66504 14.0056H10.1963C10.1963 14.353 10.252 14.6433 10.3633 14.8765C10.4746 15.1049 10.6211 15.2881 10.8027 15.4261C10.9902 15.5594 11.2012 15.6545 11.4355 15.7116C11.6699 15.7687 11.9072 15.7973 12.1475 15.7973C12.5225 15.7973 12.8301 15.7426 13.0703 15.6331C13.3164 15.5237 13.501 15.3738 13.624 15.1834C13.7529 14.9883 13.8174 14.7694 13.8174 14.5267Z" fill="#EBEEF0"/>
</svg>
