<svg width="20" height="20" viewBox="0 0 20 20" fill="none" xmlns="http://www.w3.org/2000/svg">
<path d="M5.62498 7.29169C4.01498 7.29169 2.70831 8.59877 2.70831 10.2084C2.70831 10.9819 3.0156 11.7238 3.56258 12.2707C4.10957 12.8177 4.85143 13.125 5.62498 13.125C7.23623 13.125 8.54165 11.82 8.54165 10.2084C8.54165 8.59877 7.2354 7.29169 5.62498 7.29169ZM5.62498 8.54169C6.54498 8.54169 7.29165 9.28877 7.29165 10.2084C7.29165 11.1292 6.54581 11.875 5.62498 11.875C5.18295 11.875 4.75903 11.6994 4.44647 11.3869C4.13391 11.0743 3.95831 10.6504 3.95831 10.2084C3.95831 9.76633 4.13391 9.3424 4.44647 9.02984C4.75903 8.71728 5.18295 8.54169 5.62498 8.54169ZM14.7916 13.125C14.2971 13.1249 13.8136 13.2715 13.4023 13.5462C12.9911 13.821 12.6705 14.2115 12.4812 14.6684C12.2919 15.1253 12.2424 15.6281 12.3388 16.1131C12.4353 16.5982 12.6735 17.0438 13.0232 17.3935C13.3729 17.7432 13.8185 17.9814 14.3035 18.0778C14.7886 18.1743 15.2914 18.1247 15.7483 17.9354C16.2052 17.7461 16.5957 17.4256 16.8704 17.0143C17.1451 16.6031 17.2917 16.1196 17.2916 15.625C17.2916 14.245 16.1716 13.125 14.7916 13.125ZM14.7916 14.375C15.039 14.3749 15.2808 14.4482 15.4865 14.5856C15.6922 14.7229 15.8525 14.9182 15.9472 15.1467C16.0419 15.3752 16.0667 15.6267 16.0185 15.8693C15.9702 16.1119 15.8511 16.3347 15.6762 16.5096C15.5013 16.6845 15.2785 16.8036 15.0359 16.8518C14.7933 16.9001 14.5419 16.8753 14.3134 16.7806C14.0849 16.6859 13.8896 16.5256 13.7522 16.3199C13.6148 16.1142 13.5416 15.8724 13.5416 15.625C13.5416 14.935 14.1016 14.375 14.7916 14.375ZM14.7916 2.29169C14.2971 2.2916 13.8136 2.43819 13.4023 2.71291C12.9911 2.98763 12.6705 3.37813 12.4812 3.83504C12.2919 4.29195 12.2424 4.79474 12.3388 5.27981C12.4353 5.76488 12.6735 6.21045 13.0232 6.56017C13.3729 6.90988 13.8185 7.14803 14.3035 7.2445C14.7886 7.34096 15.2914 7.29141 15.7483 7.10211C16.2052 6.91281 16.5957 6.59226 16.8704 6.181C17.1451 5.76975 17.2917 5.28626 17.2916 4.79169C17.2916 3.41169 16.1716 2.29169 14.7916 2.29169ZM14.7916 3.54169C15.039 3.5416 15.2808 3.61488 15.4865 3.75225C15.6922 3.88961 15.8525 4.0849 15.9472 4.3134C16.0419 4.5419 16.0667 4.79335 16.0185 5.03595C15.9702 5.27854 15.8511 5.50138 15.6762 5.67628C15.5013 5.85118 15.2785 5.97028 15.0359 6.01851C14.7933 6.06675 14.5419 6.04195 14.3134 5.94726C14.0849 5.85257 13.8896 5.69223 13.7522 5.48654C13.6148 5.28084 13.5416 5.03903 13.5416 4.79169C13.5416 4.10169 14.1016 3.54169 14.7916 3.54169Z" fill="#EBEEF0"/>
<path d="M6.96419 11.345C7.0495 11.2029 7.18778 11.1005 7.34859 11.0603C7.5094 11.0202 7.67957 11.0455 7.82169 11.1308L13.03 14.2558C13.1704 14.342 13.2711 14.4801 13.3102 14.64C13.3493 14.8 13.3237 14.969 13.2389 15.1102C13.1542 15.2514 13.0171 15.3534 12.8575 15.3941C12.6979 15.4348 12.5287 15.4109 12.3867 15.3275L7.17835 12.2025C7.03625 12.1172 6.93385 11.9789 6.89369 11.8181C6.85353 11.6573 6.87888 11.4871 6.96419 11.345ZM12.5596 5.17167C12.6957 5.07878 12.8629 5.04338 13.025 5.07317C13.187 5.10297 13.3308 5.19555 13.4249 5.33077C13.5191 5.46599 13.556 5.63292 13.5277 5.79524C13.4994 5.95755 13.4081 6.10213 13.2738 6.1975L8.27377 9.67959C8.13769 9.77248 7.97043 9.80788 7.80838 9.77809C7.64633 9.74829 7.5026 9.65571 7.40846 9.52049C7.31432 9.38526 7.27739 9.21834 7.30569 9.05602C7.334 8.89371 7.42525 8.74913 7.5596 8.65375L12.5596 5.17167Z" fill="#EBEEF0"/>
</svg>
