<svg width="21" height="20" viewBox="0 0 21 20" fill="none" xmlns="http://www.w3.org/2000/svg" class="size-full"><g clip-path="url(#clip0_1099_327)"><path d="M2.75 10H17.75" stroke="currentColor" stroke-width="1.5" stroke-linecap="round" stroke-linejoin="round"></path><path d="M10.25 17.5C14.3921 17.5 17.75 14.1421 17.75 10C17.75 5.85786 14.3921 2.5 10.25 2.5C6.10786 2.5 2.75 5.85786 2.75 10C2.75 14.1421 6.10786 17.5 10.25 17.5Z" stroke="currentColor" stroke-width="1.5" stroke-linecap="round" stroke-linejoin="round"></path><path d="M13.375 10C13.375 15 10.25 17.5 10.25 17.5C10.25 17.5 7.125 15 7.125 10C7.125 5 10.25 2.5 10.25 2.5C10.25 2.5 13.375 5 13.375 10Z" stroke="currentColor" stroke-width="1.5" stroke-linecap="round" stroke-linejoin="round"></path></g><defs><clipPath id="clip0_1099_327"><rect width="20" height="20" fill="currentColor" transform="translate(0.25)"></rect></clipPath></defs></svg>