<svg width="20" height="20" viewBox="0 0 20 20" fill="none" xmlns="http://www.w3.org/2000/svg">
<path d="M18.8375 8.31486C18.815 8.19802 18.7587 8.09033 18.6758 8.00504C18.5928 7.91976 18.4867 7.8606 18.3705 7.83486C17.9481 7.7409 17.5497 7.56032 17.2007 7.30454C16.8516 7.04876 16.5594 6.72334 16.3425 6.34886C16.1244 5.97663 15.9867 5.56285 15.9382 5.13417C15.8897 4.70548 15.9315 4.27139 16.061 3.85986C16.1335 3.62886 16.061 3.37686 15.876 3.21836C15.0163 2.47739 14.0232 1.90705 12.95 1.53786C12.8377 1.4987 12.7165 1.49308 12.6011 1.52167C12.4856 1.55026 12.381 1.61182 12.3 1.69886C12.0064 2.01548 11.6503 2.2678 11.2543 2.43992C10.8582 2.61203 10.4308 2.7002 9.999 2.69886C9.56649 2.69999 9.13845 2.61144 8.74189 2.43881C8.34533 2.26617 7.98887 2.0132 7.695 1.69586C7.61269 1.60977 7.50756 1.54891 7.39191 1.5204C7.27627 1.49188 7.1549 1.4969 7.042 1.53486C5.96959 1.90529 4.97757 2.47664 4.119 3.21836C3.936 3.37686 3.864 3.62586 3.936 3.85486C4.06526 4.26634 4.107 4.70032 4.05852 5.12889C4.01004 5.55746 3.87242 5.97115 3.6545 6.34336C3.2165 7.10436 2.4965 7.63186 1.6295 7.82936C1.51393 7.85638 1.40852 7.91594 1.32575 8.00101C1.24299 8.08608 1.18633 8.19309 1.1625 8.30936C1.05547 8.86264 1.00106 9.42482 1 9.98836C1 10.5364 1.054 11.1024 1.1625 11.6659C1.2065 11.9024 1.3895 12.0919 1.627 12.1464C2.04934 12.2404 2.44758 12.421 2.79656 12.6768C3.14555 12.9325 3.43768 13.2579 3.6545 13.6324C3.87186 14.0048 4.00917 14.4184 4.05764 14.8469C4.10611 15.2754 4.06468 15.7093 3.936 16.1209C3.866 16.3499 3.9385 16.5989 4.1215 16.7599C4.9811 17.4995 5.97287 18.0699 7.0445 18.4409C7.282 18.5209 7.5345 18.4509 7.6945 18.2824C7.98808 17.9645 8.34456 17.7112 8.74129 17.5386C9.13802 17.3659 9.56633 17.2776 9.999 17.2794C10.8785 17.2794 11.6965 17.6354 12.3025 18.2794C12.416 18.4044 12.5815 18.4744 12.7515 18.4744C12.8185 18.4744 12.8855 18.4639 12.9555 18.4404C14.0271 18.0695 15.0188 17.4993 15.8785 16.7599C15.967 16.682 16.0314 16.5805 16.0642 16.4674C16.0971 16.3542 16.097 16.234 16.064 16.1209C15.9346 15.7094 15.8929 15.2754 15.9413 14.8468C15.9898 14.4182 16.1275 14.0045 16.3455 13.6324C16.5617 13.2574 16.8536 12.9316 17.2027 12.6758C17.5518 12.4199 17.9504 12.2396 18.373 12.1464C18.608 12.0914 18.791 11.9049 18.8375 11.6659C18.946 11.1024 19 10.5359 19 9.98786C19 9.44286 18.943 8.87936 18.8375 8.31536V8.31486ZM14.503 15.7339C13.9645 16.1525 13.3705 16.4942 12.738 16.7494C11.9807 16.0831 11.0066 15.7156 9.998 15.7156C8.98935 15.7156 8.01526 16.0831 7.258 16.7494C6.62469 16.4962 6.03058 16.1543 5.4935 15.7339C5.69807 14.7485 5.53084 13.7223 5.024 12.8529C4.51801 11.98 3.70945 11.323 2.7515 11.0064C2.7025 10.6659 2.6765 10.3254 2.6765 9.99036C2.6765 9.65786 2.7025 9.31536 2.7515 8.97536C3.71021 8.65955 4.51913 8.00191 5.024 7.12786C5.52895 6.25794 5.69624 5.23267 5.494 4.24736C6.03229 3.82863 6.62613 3.4867 7.2585 3.23136C8.01455 3.90004 8.98917 4.2689 9.9985 4.26836C11.0076 4.27061 11.9825 3.90272 12.7385 3.23436C13.373 3.48886 13.9665 3.82936 14.503 4.24986C14.2997 5.23496 14.466 6.26041 14.97 7.13086C15.4761 8.00383 16.2849 8.66082 17.243 8.97736C17.292 9.31786 17.318 9.65836 17.318 9.99586C17.32 10.3179 17.297 10.6559 17.2455 11.0089C16.2892 11.3242 15.4819 11.9794 14.9764 12.8502C14.471 13.7211 14.3025 14.7471 14.503 15.7339Z" fill="#EBEEF0"/>
<path d="M10.1 13.7023C8.1155 13.7023 6.5 12.0873 6.5 10.1023C6.5 8.11735 8.113 6.50235 10.1 6.50235C12.0845 6.50235 13.7 8.11735 13.7 10.1023C13.7 12.0873 12.085 13.7023 10.1 13.7023ZM10.1 7.79235C8.825 7.79235 7.79 8.82735 7.79 10.1023C7.79 11.3773 8.825 12.4123 10.1 12.4123C11.375 12.4123 12.41 11.3773 12.41 10.1023C12.41 8.82735 11.372 7.79235 10.1 7.79235Z" fill="#EBEEF0"/>
</svg>
