<svg width="16" height="16" viewBox="0 0 16 16" fill="none" xmlns="http://www.w3.org/2000/svg">
<path d="M10.3531 5.87624C10.4659 5.53767 10.5171 5.37352 10.6094 5.34274C10.6504 5.33248 10.6914 5.33248 10.7325 5.34274C10.8247 5.37352 10.876 5.53767 10.9888 5.87624C11.4502 7.28182 11.6757 7.97948 12.1166 8.5335C12.3217 8.79 12.5473 9.01571 12.8036 9.2209C13.3573 9.65181 14.0545 9.88778 15.4591 10.3495C15.7975 10.4623 15.9615 10.5136 15.9923 10.606C16.0026 10.647 16.0026 10.688 15.9923 10.7291C15.9615 10.8214 15.7975 10.8727 15.4591 10.9856C14.0545 11.4473 13.3573 11.673 12.8036 12.1141C12.5473 12.3193 12.3217 12.545 12.1166 12.8015C11.686 13.3556 11.4502 14.0532 10.9888 15.4588C10.876 15.7974 10.8247 15.9615 10.7325 15.9923C10.6914 16.0026 10.6504 16.0026 10.6094 15.9923C10.5171 15.9615 10.4659 15.7974 10.3531 15.4588C9.8917 14.0532 9.66613 13.3556 9.22525 12.8015C9.02019 12.545 8.79462 12.3193 8.53829 12.1141C7.98462 11.6832 7.28741 11.4473 5.88273 10.9856C5.54438 10.8727 5.38033 10.8214 5.34957 10.7291C5.33931 10.688 5.33931 10.647 5.34957 10.606C5.38033 10.5136 5.54438 10.4623 5.88273 10.3495C7.28741 9.88778 7.98462 9.66207 8.53829 9.2209C8.79462 9.01571 9.02019 8.79 9.22525 8.5335C9.66613 7.97948 9.8917 7.28182 10.3531 5.87624ZM3.35021 3.03431C3.42198 2.80859 3.46299 2.69574 3.52451 2.67522C3.55527 2.66496 3.57578 2.66496 3.60654 2.67522C3.66806 2.69574 3.69881 2.80859 3.78084 3.03431C4.08843 3.96794 4.24223 4.43988 4.52932 4.80923C4.66261 4.98365 4.8164 5.13754 4.99071 5.27092C5.35982 5.55819 5.83146 5.71209 6.7645 6.01988C6.99007 6.0917 7.10285 6.13273 7.12336 6.19429C7.13361 6.22507 7.13361 6.24559 7.12336 6.27637C7.10285 6.33793 6.99007 6.36871 6.7645 6.45079C5.83146 6.75858 5.35982 6.91247 4.99071 7.19974C4.8164 7.33312 4.66261 7.48701 4.52932 7.66143C4.24223 8.03078 4.08843 8.50273 3.78084 9.43636C3.70907 9.66207 3.66806 9.77493 3.60654 9.79545C3.57578 9.80571 3.55527 9.80571 3.52451 9.79545C3.46299 9.77493 3.43223 9.66207 3.35021 9.43636C3.04261 8.50273 2.88882 8.03078 2.60173 7.66143C2.46844 7.48701 2.31464 7.33312 2.14034 7.19974C1.77123 6.91247 1.29958 6.75858 0.366549 6.45079C0.14098 6.37897 0.0281961 6.33793 0.00768984 6.27637C-0.00256328 6.24559 -0.00256328 6.22507 0.00768984 6.19429C0.0281961 6.13273 0.14098 6.10196 0.366549 6.01988C1.29958 5.71209 1.77123 5.55819 2.14034 5.27092C2.31464 5.13754 2.46844 4.98365 2.60173 4.80923C2.88882 4.42962 3.04261 3.96794 3.35021 3.03431ZM8.32297 0.233408C8.36399 0.0897723 8.39474 0.0282142 8.4255 0.00769477C8.44601 -0.00256492 8.45626 -0.00256492 8.47677 0.00769477C8.51778 0.0179545 8.53829 0.0897723 8.5793 0.233408C8.77411 0.818211 8.86639 1.10548 9.05095 1.34146C9.13297 1.44405 9.2355 1.54665 9.33803 1.62873C9.57385 1.8134 9.86094 1.90574 10.4454 2.10067C10.5889 2.14171 10.6504 2.17249 10.6709 2.20327C10.6812 2.22379 10.6812 2.23405 10.6709 2.25457C10.6607 2.29561 10.5889 2.31613 10.4454 2.35717C9.86094 2.5521 9.57385 2.64444 9.33803 2.82911C9.2355 2.91119 9.13297 3.01379 9.05095 3.11638C8.86639 3.35236 8.77411 3.63963 8.5793 4.22443C8.53829 4.36807 8.50753 4.42963 8.47677 4.45014C8.45626 4.4604 8.44601 4.4604 8.4255 4.45014C8.38449 4.43988 8.36399 4.36807 8.32297 4.22443C8.12816 3.63963 8.03589 3.35236 7.85133 3.11638C7.7693 3.01379 7.66677 2.91119 7.56424 2.82911C7.32842 2.64444 7.04133 2.5521 6.4569 2.35717C6.31336 2.31613 6.25184 2.28535 6.23134 2.25457C6.22108 2.23405 6.22108 2.22379 6.23134 2.20327C6.24159 2.16223 6.31336 2.14171 6.4569 2.10067C7.04133 1.90574 7.32842 1.8134 7.56424 1.62873C7.66677 1.54665 7.7693 1.44405 7.85133 1.34146C8.02563 1.10548 8.12816 0.818211 8.32297 0.233408Z" fill="#0D1417"/>
</svg>
