<svg width="24" height="24" viewBox="0 0 24 24" fill="none" xmlns="http://www.w3.org/2000/svg">
<path d="M15.5296 8.81436C15.6988 8.30651 15.7757 8.06028 15.9141 8.01411C15.9756 7.99872 16.0372 7.99872 16.0987 8.01411C16.2371 8.06028 16.314 8.30651 16.4832 8.81436C17.1753 10.9227 17.5136 11.9692 18.1749 12.8003C18.4825 13.185 18.8209 13.5236 19.2054 13.8314C20.0359 14.4777 21.0817 14.8317 23.1887 15.5242C23.6963 15.6935 23.9423 15.7704 23.9885 15.9089C24.0038 15.9705 24.0038 16.0321 23.9885 16.0936C23.9423 16.2321 23.6963 16.3091 23.1887 16.4784C21.0817 17.1709 20.0359 17.5095 19.2054 18.1712C18.8209 18.479 18.4825 18.8176 18.1749 19.2023C17.529 20.0333 17.1753 21.0798 16.4832 23.1882C16.314 23.6961 16.2371 23.9423 16.0987 23.9885C16.0372 24.0038 15.9756 24.0038 15.9141 23.9885C15.7757 23.9423 15.6988 23.6961 15.5296 23.1882C14.8376 21.0798 14.4992 20.0333 13.8379 19.2023C13.5303 18.8176 13.1919 18.479 12.8074 18.1712C11.9769 17.5248 10.9311 17.1709 8.82409 16.4784C8.31657 16.3091 8.07049 16.2321 8.02435 16.0936C8.00897 16.0321 8.00897 15.9705 8.02435 15.9089C8.07049 15.7704 8.31657 15.6935 8.82409 15.5242C10.9311 14.8317 11.9769 14.4931 12.8074 13.8314C13.1919 13.5236 13.5303 13.185 13.8379 12.8003C14.4992 11.9692 14.8376 10.9227 15.5296 8.81436ZM5.02531 4.55146C5.13297 4.21289 5.19449 4.0436 5.28677 4.01283C5.33291 3.99744 5.36367 3.99744 5.4098 4.01283C5.50208 4.0436 5.54822 4.21289 5.67126 4.55146C6.13265 5.95191 6.36335 6.65983 6.79398 7.21385C6.99391 7.47547 7.22461 7.70632 7.48606 7.90638C8.03973 8.33729 8.7472 8.56813 10.1467 9.02982C10.4851 9.13754 10.6543 9.1991 10.685 9.29144C10.7004 9.33761 10.7004 9.36839 10.685 9.41456C10.6543 9.50689 10.4851 9.55306 10.1467 9.67618C8.7472 10.1379 8.03973 10.3687 7.48606 10.7996C7.22461 10.9997 6.99391 11.2305 6.79398 11.4921C6.36335 12.0462 6.13265 12.7541 5.67126 14.1545C5.5636 14.4931 5.50208 14.6624 5.4098 14.6932C5.36367 14.7086 5.33291 14.7086 5.28677 14.6932C5.19449 14.6624 5.14835 14.4931 5.02531 14.1545C4.56392 12.7541 4.33323 12.0462 3.9026 11.4921C3.70266 11.2305 3.47196 10.9997 3.21051 10.7996C2.65684 10.3687 1.94938 10.1379 0.549824 9.67618C0.211471 9.56845 0.0422941 9.50689 0.0115348 9.41456C-0.00384492 9.36839 -0.00384492 9.33761 0.0115348 9.29144C0.0422941 9.1991 0.211471 9.15293 0.549824 9.02982C1.94938 8.56813 2.65684 8.33729 3.21051 7.90638C3.47196 7.70632 3.70266 7.47547 3.9026 7.21385C4.33323 6.64444 4.56392 5.95191 5.02531 4.55146ZM12.4845 0.350112C12.546 0.134658 12.5921 0.0423213 12.6383 0.0115422C12.669 -0.00384738 12.6844 -0.00384738 12.7152 0.0115422C12.7767 0.0269317 12.8074 0.134658 12.869 0.350112C13.1612 1.22732 13.2996 1.65822 13.5764 2.01218C13.6995 2.16608 13.8533 2.31997 14.007 2.44309C14.3608 2.7201 14.7914 2.85861 15.6681 3.15101C15.8834 3.21257 15.9756 3.25874 16.0064 3.30491C16.0218 3.33568 16.0218 3.35107 16.0064 3.38185C15.991 3.44341 15.8834 3.47419 15.6681 3.53575C14.7914 3.82815 14.3608 3.96666 14.007 4.24367C13.8533 4.36678 13.6995 4.52068 13.5764 4.67458C13.2996 5.02853 13.1612 5.45944 12.869 6.33665C12.8074 6.5521 12.7613 6.64444 12.7152 6.67522C12.6844 6.69061 12.669 6.69061 12.6383 6.67522C12.5767 6.65983 12.546 6.5521 12.4845 6.33665C12.1922 5.45944 12.0538 5.02853 11.777 4.67458C11.654 4.52068 11.5002 4.36678 11.3464 4.24367C10.9926 3.96666 10.562 3.82815 9.68536 3.53575C9.47004 3.47419 9.37776 3.42802 9.347 3.38185C9.33162 3.35107 9.33162 3.33568 9.347 3.30491C9.36238 3.24335 9.47004 3.21257 9.68536 3.15101C10.562 2.85861 10.9926 2.7201 11.3464 2.44309C11.5002 2.31997 11.654 2.16608 11.777 2.01218C12.0384 1.65822 12.1922 1.22732 12.4845 0.350112Z" fill="#EBEEF0"/>
</svg>
