<svg width="20" height="20" viewBox="0 0 20 20" fill="none" xmlns="http://www.w3.org/2000/svg">
<path d="M15.3125 2.5H4.6875C2.96875 2.5 1.5625 3.90625 1.5625 5.625V14.375C1.5625 16.0938 2.96875 17.5 4.6875 17.5H15.3125C17.0312 17.5 18.4375 16.0938 18.4375 14.375V5.625C18.4375 3.90625 17.0312 2.5 15.3125 2.5ZM17.1875 11.875H11.5625C10.5312 11.875 9.6875 11.0312 9.6875 10C9.6875 8.96875 10.5312 8.125 11.5625 8.125H17.1875V11.875ZM11.5625 6.875C9.84375 6.875 8.4375 8.28125 8.4375 10C8.4375 11.7188 9.84375 13.125 11.5625 13.125H17.1875V14.375C17.1875 15.4062 16.3438 16.25 15.3125 16.25H4.6875C3.65625 16.25 2.8125 15.4062 2.8125 14.375V5.625C2.8125 4.59375 3.65625 3.75 4.6875 3.75H15.3125C16.3438 3.75 17.1875 4.59375 17.1875 5.625V6.875H11.5625Z" fill="#75838A"/>
<path d="M10.9375 10C10.9375 10.1658 11.0033 10.3247 11.1206 10.4419C11.2378 10.5592 11.3967 10.625 11.5625 10.625C11.7283 10.625 11.8872 10.5592 12.0044 10.4419C12.1217 10.3247 12.1875 10.1658 12.1875 10C12.1875 9.83424 12.1217 9.67527 12.0044 9.55806C11.8872 9.44085 11.7283 9.375 11.5625 9.375C11.3967 9.375 11.2378 9.44085 11.1206 9.55806C11.0033 9.67527 10.9375 9.83424 10.9375 10Z" fill="#75838A"/>
</svg>
