<svg width="20" height="20" viewBox="0 0 20 20" fill="none" xmlns="http://www.w3.org/2000/svg">
<circle cx="10" cy="10" r="10" fill="#1F292E"/>
<path d="M9.70311 5.52429C9.80847 5.20802 9.85635 5.05468 9.94255 5.02593C9.98087 5.01634 10.0192 5.01634 10.0575 5.02593C10.1437 5.05468 10.1916 5.20802 10.2969 5.52429C10.7279 6.83729 10.9386 7.48899 11.3505 8.00652C11.542 8.24612 11.7528 8.45697 11.9922 8.64865C12.5094 9.05117 13.1607 9.2716 14.4728 9.70288C14.7889 9.8083 14.9422 9.85622 14.9709 9.94248C14.9805 9.98081 14.9805 10.0191 14.9709 10.0575C14.9422 10.1437 14.7889 10.1917 14.4728 10.2971C13.1607 10.7284 12.5094 10.9392 11.9922 11.3513C11.7528 11.543 11.542 11.7538 11.3505 11.9934C10.9482 12.511 10.7279 13.1627 10.2969 14.4757C10.1916 14.7919 10.1437 14.9453 10.0575 14.974C10.0192 14.9836 9.98087 14.9836 9.94255 14.974C9.85635 14.9453 9.80847 14.7919 9.70311 14.4757C9.27211 13.1627 9.0614 12.511 8.64956 11.9934C8.458 11.7538 8.24729 11.543 8.00785 11.3513C7.49065 10.9488 6.83936 10.7284 5.5272 10.2971C5.21113 10.1917 5.05789 10.1437 5.02916 10.0575C5.01958 10.0191 5.01958 9.98081 5.02916 9.94248C5.05789 9.85622 5.21113 9.8083 5.5272 9.70288C6.83936 9.2716 7.49065 9.06075 8.00785 8.64865C8.24729 8.45697 8.458 8.24612 8.64956 8.00652C9.0614 7.48899 9.27211 6.83729 9.70311 5.52429Z" fill="#EBEEF0"/>
</svg>
