<svg width="64" height="40" viewBox="0 0 64 40" fill="none" xmlns="http://www.w3.org/2000/svg">
<path d="M0 4.91406V19.9939C4.39616 19.9939 6.30457 22.3283 9.18422 25.8639C12.541 29.9789 16.7156 35.0907 24.6389 35.0907V20.0109C20.2428 20.0109 18.3344 17.6765 15.4547 14.1409C12.098 10.0259 7.92331 4.91406 0 4.91406Z" fill="#75838A"/>
<path d="M24.6377 4.91553V19.9953C29.0339 19.9953 30.9423 22.3297 33.8219 25.8654C37.1787 29.9804 41.3533 35.0922 49.2766 35.0922V20.0124C44.8805 20.0124 42.9721 17.678 40.0924 14.1423C36.7442 10.0273 32.5695 4.91553 24.6377 4.91553Z" fill="#75838A"/>
<path d="M56.0554 18.454C59.7961 18.454 62.8285 15.4216 62.8285 11.6809C62.8285 7.94015 59.7961 4.90771 56.0554 4.90771C52.3147 4.90771 49.2822 7.94015 49.2822 11.6809C49.2822 15.4216 52.3147 18.454 56.0554 18.454Z" fill="#75838A"/>
</svg>
