<svg width="87" height="42" viewBox="0 0 87 42" fill="none" xmlns="http://www.w3.org/2000/svg">
<path d="M0 0.00634766V20.7415C6.04484 20.7415 8.66895 23.9514 12.6286 28.813C17.2442 34.4713 22.9844 41.5001 33.8792 41.5001V20.765C27.8344 20.765 25.2103 17.5551 21.2507 12.6935C16.635 7.03522 10.8948 0.00634766 0 0.00634766Z" fill="#0EECBC"/>
<path d="M33.8781 0.0107422V20.7459C39.9229 20.7459 42.547 23.9558 46.5066 28.8174C51.1222 34.4757 56.8625 41.5045 67.7573 41.5045V20.7694C61.7124 20.7694 59.0883 17.5595 55.1287 12.6979C50.5248 7.03962 44.7845 0.0107422 33.8781 0.0107422Z" fill="#0EECBC"/>
<path d="M77.0774 18.6265C82.221 18.6265 86.3907 14.4568 86.3907 9.31326C86.3907 4.16969 82.221 0 77.0774 0C71.9339 0 67.7642 4.16969 67.7642 9.31326C67.7642 14.4568 71.9339 18.6265 77.0774 18.6265Z" fill="#0EECBC"/>
</svg>
