<?xml version="1.0" encoding="UTF-8"?>
<svg id="_图层_1" data-name="图层 1" xmlns="http://www.w3.org/2000/svg" viewBox="0 0 147.4 147.4">
  <defs>
    <style>
      .cls-1 {
        fill: #92318d;
      }
    </style>
  </defs>
  <path class="cls-1" d="M48.02,41.46c-.33-8.68,2.8-17.46,9.41-24.07,12.59-12.59,33.07-12.59,45.65,0,12.59,12.59,12.59,33.07,0,45.65h0l-7.15,7.15-12.17-12.17,7.15-7.15c5.88-5.88,5.88-15.44,0-21.32s-15.44-5.88-21.32,0c-5.88,5.88-5.88,15.44,0,21.32l22.83,22.83,10.66,10.66h0c5.88,5.88,15.44,5.88,21.32,0s5.88-15.44,0-21.32l-8.98-8.98c2.85-7.27,3.37-15.26,1.55-22.79l19.6,19.6c12.59,12.59,12.59,33.07,0,45.65-6.61,6.61-15.4,9.75-24.07,9.41.33,8.68-2.8,17.46-9.41,24.07-12.59,12.59-33.07,12.59-45.65,0-12.59-12.59-12.59-33.07,0-45.65l7.15-7.15,12.17,12.17-7.15,7.15c-5.88,5.88-5.88,15.44,0,21.32,5.88,5.88,15.44,5.88,21.32,0,5.88-5.88,5.88-15.44,0-21.32h0s-33.49-33.49-33.49-33.49h0c-5.88-5.88-15.44-5.88-21.32,0-.34.34-.67.7-.97,1.07l-.05-.05-9.37,9.37,10.66,10.66-12.17,12.17-10.66-10.66-12.17-12.17,12.17-12.17,10.39-10.39h0c6.61-6.61,15.4-9.75,24.07-9.41Z"/>
</svg>