<?xml version="1.0" encoding="utf-8"?>
<!-- Generator: Adobe Illustrator 27.0.0, SVG Export Plug-In . SVG Version: 6.00 Build 0)  -->
<svg version="1.1" id="_图层_2" xmlns="http://www.w3.org/2000/svg" xmlns:xlink="http://www.w3.org/1999/xlink" x="0px" y="0px"
	 viewBox="0 0 427.9 131.5" style="enable-background:new 0 0 427.9 131.5;" xml:space="preserve">
<style type="text/css">
	.st0{fill:#92308D;}
	.st1{fill:#FFFFFF;}
</style>
<g id="_图层_1-2">
	<g>
		<path class="st0" d="M46.6,33.5C46.3,24.8,49.4,16,56,9.4c12.6-12.6,33.1-12.6,45.7,0c12.6,12.6,12.6,33.1,0,45.7l0,0l-7.2,7.2
			L82.4,50.1l7.2-7.2c5.9-5.9,5.9-15.4,0-21.3s-15.4-5.9-21.3,0s-5.9,15.4,0,21.3L91,65.8l10.7,10.7l0,0c5.9,5.9,15.4,5.9,21.3,0
			s5.9-15.4,0-21.3l-9-9c2.8-7.3,3.4-15.3,1.6-22.8l19.6,19.6c12.6,12.6,12.6,33.1,0,45.7c-6.6,6.6-15.4,9.8-24.1,9.4
			c0.3,8.7-2.8,17.5-9.4,24.1c-12.6,12.6-33.1,12.6-45.7,0c-12.6-12.6-12.6-33.1,0-45.7l7.2-7.2l12.2,12.2l-7.2,7.2
			c-5.9,5.9-5.9,15.4,0,21.3s15.4,5.9,21.3,0s5.9-15.4,0-21.3l0,0L56,55.1l0,0c-5.9-5.9-15.4-5.9-21.3,0c-0.3,0.3-0.7,0.7-1,1.1l0,0
			l-9.4,9.4L35,76.1L22.8,88.3L12.2,77.6L0,65.5l12.2-12.2l10.4-10.4l0,0C29.2,36.3,38,33.2,46.6,33.5z"/>
		<g>
			<path class="st1" d="M172.9,39.5h16.2c6.8,0,11.8,3.1,15,9.2c1,2.5,1.4,4.9,1.4,7.3c0,4.3-1.6,8.2-5,11.8
				c-2.6,1.9-4.8,2.9-6.8,2.9l-0.5,0.1c0,0.4,3.4,5.9,10.2,16.6c1.2,2,1.8,3,1.8,3.3l-0.2,0.2h-5.6c-0.4-0.3-2.7-3.9-6.8-10.8
				c-5.6-8.9-8.4-13.5-8.4-13.8l0.2-0.2h4c5.2,0,8.6-2,10.4-5.9c0.6-1.5,1-2.9,1-4.2V55c0-4-2.1-7.2-6.2-9.4c-2-0.7-4.4-1.1-7.1-1.1
				h-8.9l-0.1,0.6v45.5l-0.2,0.2h-4.5c-0.2-0.1-0.4-0.3-0.4-0.7V40.2C172.6,39.7,172.7,39.5,172.9,39.5L172.9,39.5z"/>
			<path class="st1" d="M216.4,39.5h4.5l0.2,0.2v7.6l-0.2,0.2h-4.5c-0.2-0.1-0.4-0.3-0.4-0.7v-6.7C216.1,39.7,216.3,39.5,216.4,39.5
				L216.4,39.5z M216.4,52.2h4.5l0.2,0.2v38.2l-0.2,0.2h-4.5c-0.2-0.1-0.4-0.3-0.4-0.7V52.9C216.1,52.4,216.3,52.2,216.4,52.2
				L216.4,52.2z"/>
			<path class="st1" d="M236.7,52.2c0.3,0.3,3.6,8.4,9.7,24.2l2.5,6.4h0.1c0.2-0.1,1.8-3.9,4.7-11.4l8-19.2h5c0.2,0,0.2,0.1,0.2,0.4
				c-9.1,22.5-14.4,35.2-15.7,38.2l-0.1,0.1h-4.4c-0.3,0-1.9-3.9-4.7-11.7c-6.9-17.4-10.4-26.3-10.4-26.8l0.1-0.1L236.7,52.2
				L236.7,52.2z"/>
			<path class="st1" d="M298.4,51c8.3,0,14.2,4.3,17.9,12.9c1,3.1,1.5,6.1,1.5,8.8l-0.4,0.2h-34.2c-0.2,0-0.2,0.1-0.2,0.4
				c0,3.5,1.8,7,5.3,10.5c2.8,2.2,5.9,3.3,9.2,3.3c5.9,0,10.3-2.9,13.3-8.6h5.3l0.2,0.2V79c-2,5.1-5.5,8.9-10.5,11.4
				c-2.6,1.1-5.3,1.7-8.1,1.7c-6.9,0-12.5-3.1-16.8-9.2c-2.3-3.7-3.4-7.7-3.4-12c0-6.3,2.7-11.8,8.2-16.3
				C289.4,52.2,293.6,51,298.4,51L298.4,51z M283.1,68.6l0.1,0.1h28.4l0.2-0.2c-0.2-2.2-1.4-4.9-3.8-8c-2.8-3.1-6.3-4.7-10.6-4.7
				c-6.7,0-11.3,3.3-13.8,9.9C283.3,66.8,283.1,67.8,283.1,68.6L283.1,68.6z"/>
			<path class="st1" d="M341.8,51.5l0.2,0.4v4.8c0,0.1-1,0.4-3.1,0.7c-2.1,0.8-3.6,2.1-4.5,3.9c-0.7,1.1-1.1,2.8-1.1,5v24.3
				l-0.2,0.2h-4.5c-0.2-0.1-0.4-0.3-0.4-0.7V53.5c0.1-0.5,0.2-0.7,0.4-0.7h4.1l0.4,0.4V56h0.1c2.2-2.2,4.6-3.6,7-4.1L341.8,51.5
				L341.8,51.5z"/>
			<path class="st1" d="M352.8,39.5h12.3c6.8,0,11.4,3.5,13.7,10.5c0.2,0.9,0.4,1.9,0.4,2.9v1.3c0,3.6-1.6,6.6-4.7,8.8l2.9,1.7
				c3.1,2.7,4.6,6.2,4.6,10.5c0,6-2.5,10.6-7.6,13.8c-2.5,1.2-5.2,1.8-8.1,1.8h-13.4c-0.2-0.1-0.4-0.3-0.4-0.7V40.2
				C352.5,39.7,352.7,39.5,352.8,39.5L352.8,39.5z M357.7,44.5l-0.1,0.6v16.1l0.4,0.4h4.1c5.5,0,9-1.3,10.4-3.9
				c0.8-1.3,1.2-2.6,1.2-4v-1.6c0-3.5-2.1-5.8-6.2-7.1c-1.1-0.3-2.7-0.5-4.7-0.5H357.7L357.7,44.5z M357.7,66.7l-0.1,0.6v18.1
				l0.1,0.6h7.3c6.1,0,9.8-2.1,11.1-6.2c0.3-1.1,0.5-2.3,0.6-3.6c0-4.3-2-7.2-6-8.7c-1.4-0.6-3.6-0.8-6.5-0.8L357.7,66.7L357.7,66.7
				z"/>
			<path class="st1" d="M392.8,39.5h4.5l0.2,0.2v7.6l-0.2,0.2h-4.5c-0.2-0.1-0.4-0.3-0.4-0.7v-6.7C392.5,39.7,392.7,39.5,392.8,39.5
				L392.8,39.5z M392.8,52.2h4.5l0.2,0.2v38.2l-0.2,0.2h-4.5c-0.2-0.1-0.4-0.3-0.4-0.7V52.9C392.5,52.4,392.7,52.2,392.8,52.2
				L392.8,52.2z"/>
			<path class="st1" d="M415.7,39.5h4.6l0.2,0.2V52l0.6,0.1h6.5l0.2,0.2V57l-0.4,0.4h-6.8l-0.2,0.2v32.9l-0.4,0.4h-4.4l-0.4-0.4
				V57.6l-0.2-0.2h-6.9l-0.2-0.2v-4.7l0.2-0.2h6.5l0.6-0.1V39.7L415.7,39.5L415.7,39.5z"/>
		</g>
	</g>
</g>
</svg>
