<svg width="68" height="68" viewBox="0 0 68 68" fill="none" xmlns="http://www.w3.org/2000/svg">
<circle cx="34" cy="34" r="34" fill="#1F292E"/>
<path d="M46.6198 21.18V18.48C46.6198 17.22 45.5998 16.18 44.3198 16.18H24.1198C22.8598 16.18 21.8198 17.2 21.8198 18.48V21.08C18.4198 21.64 15.7998 24.62 15.7998 28.18C15.7998 32.1 18.9598 35.3 22.8598 35.38C24.7798 39.76 29.1398 42.82 34.2198 42.82C39.3198 42.82 43.6798 39.74 45.5998 35.36C49.2798 35.06 52.1998 31.94 52.1998 28.18C52.1998 24.78 49.7998 21.92 46.6198 21.18ZM18.9998 28.18C18.9998 26.38 20.1998 24.86 21.8198 24.36V30.62C21.8198 31.1 21.8598 31.56 21.9198 32.02C20.2398 31.58 18.9998 30.02 18.9998 28.18ZM40.1398 28.12L37.8198 30.52L38.3598 33.9C38.5398 35.06 37.9198 35.5 36.9398 34.96L34.0798 33.26L31.2198 34.86C30.2398 35.4 29.6198 34.94 29.7998 33.8L30.3398 30.42L28.0198 28.02C27.2198 27.22 27.4798 26.42 28.5598 26.24L31.7598 25.8L33.1798 22.86C33.6198 21.8 34.4198 21.8 34.9598 22.86L36.3798 25.88L39.5798 26.32C40.6798 26.52 40.9398 27.32 40.1398 28.12ZM46.5398 31.88C46.5798 31.46 46.6198 31.06 46.6198 30.64V24.54C48.0198 25.16 48.9998 26.56 48.9998 28.2C48.9998 29.84 47.9798 31.28 46.5398 31.88ZM39.9998 51.82H27.9998C27.1198 51.82 26.3998 51.1 26.3998 50.22C26.3998 49.34 27.1198 48.62 27.9998 48.62H39.9998C40.8798 48.62 41.5998 49.34 41.5998 50.22C41.5998 51.1 40.8798 51.82 39.9998 51.82Z" fill="#75838A"/>
<path d="M32.4004 42.32H35.6004V49.52H32.4004V42.32Z" fill="#75838A"/>
</svg>
